inDegrees=yes
name=coleta2_motion.mot
DataType=double
version=3
OpenSimVersion=4.4-2022-07-23-0e9fedc
endheader
time	pelvis_tilt	pelvis_tx	pelvis_ty	hip_flexion_r	knee_angle_r	ankle_angle_r	hip_flexion_l	knee_angle_l	ankle_angle_l	lumbar_extension	gearToGround_coord_0	rightPedalToGear_coord_0	leftPedalToGear_coord_0
9.80095386505127	41.38165227335435	-0.7	0.0500000000000003	98.58165227335522	-76.37017141503532	-1.039076492892845e-12	80.38799999999991	-84.66000000000004	5.05043721578303e-13	2.071017320375504e-12	0	-114.0000000000003	-139.067795130823
9.809957981109619	41.38170145039128	-0.7	0.0500000000000003	98.58170145039212	-77.08033441644527	-1.039076492892845e-12	80.38799999999991	-84.66000000000004	5.05043721578303e-13	2.071017320375504e-12	0	-114.0000000000003	-139.067795130823
9.818954944610596	41.38177995540084	-0.7	0.0500000000000003	98.58177995540167	-78.7189115255144	-1.039076492892845e-12	80.38799999999991	-84.66000000000004	5.05043721578303e-13	2.071017320375504e-12	0	-114.0000000000003	-139.067795130823
9.827955961227417	41.38171172974198	-0.7	0.0500000000000003	98.58171172974286	-79.53355293754167	-1.039076492892845e-12	80.38799999999991	-84.66000000000004	5.05043721578303e-13	2.071017320375504e-12	0	-114.0000000000003	-139.067795130823
9.837954998016357	41.38171020238347	-0.7	0.0500000000000003	98.58171020238431	-80.34026192287196	-1.039076492892845e-12	80.38799999999991	-84.66000000000004	5.05043721578303e-13	2.071017320375504e-12	0	-114.0000000000003	-139.067795130823
9.84694504737854	41.38188276259567	-0.7	0.0500000000000003	98.58188276259651	-83.17449262386025	-1.039076492892845e-12	80.38799999999991	-84.66000000000004	5.05043721578303e-13	2.071017320375504e-12	0	-114.0000000000003	-139.067795130823
9.850951910018921	41.38172877328327	-0.7	0.0500000000000003	98.58172877328413	-84.16726681488235	-1.039076492892845e-12	80.38799999999991	-84.66000000000004	5.05043721578303e-13	2.071017320375504e-12	0	-114.0000000000003	-139.067795130823
9.875005006790161	41.3817729550016	-0.7	0.0500000000000003	98.58177295500249	-85.69867057895603	-1.039076492892845e-12	80.38799999999991	-84.66000000000004	5.05043721578303e-13	2.071017320375504e-12	0	-114.0000000000003	-139.067795130823
9.881970882415771	41.38183156023445	-0.7	0.0500000000000003	98.5818315602353	-87.94977523121352	-1.039076492892845e-12	80.38799999999991	-84.66000000000004	5.05043721578303e-13	2.071017320375504e-12	0	-114.0000000000003	-139.067795130823
9.89095401763916	41.38181286363566	-0.7	0.0500000000000003	98.58181286363649	-89.99913943728681	-1.039076492892845e-12	80.38799999999991	-84.66000000000004	5.05043721578303e-13	2.071017320375504e-12	0	-114.0000000000003	-139.067795130823
9.909946918487549	41.38188172464375	-0.7	0.0500000000000003	98.58188172464459	-92.99991609196383	-1.039076492892845e-12	80.38799999999991	-84.66000000000004	5.05043721578303e-13	2.071017320375504e-12	0	-114.0000000000003	-139.067795130823
9.926958084106445	41.38186604935236	-0.7	0.0500000000000003	98.58186604935317	-95.91825775286776	-1.039076492892845e-12	80.38799999999991	-84.66000000000004	5.05043721578303e-13	2.071017320375504e-12	0	-114.0000000000003	-139.067795130823
9.945954084396362	41.38173614812806	-0.7	0.0500000000000003	98.58173614812885	-97.12867368272616	-1.039076492892845e-12	80.38799999999991	-84.66000000000004	5.05043721578303e-13	2.071017320375504e-12	0	-114.0000000000003	-139.067795130823
9.960978031158447	41.38181543844131	-0.7	0.0500000000000003	98.58181543844206	-99.47215964388118	-1.039076492892845e-12	80.38799999999991	-84.66000000000004	5.05043721578303e-13	2.071017320375504e-12	0	-114.0000000000003	-139.067795130823
9.979951858520508	41.38180126013273	-0.7	0.0500000000000003	98.5818012601335	-101.6794945239865	-1.039076492892845e-12	80.38799999999991	-84.66000000000004	5.05043721578303e-13	2.071017320375504e-12	0	-114.0000000000003	-139.067795130823
9.991949081420898	41.38173780618231	-0.7	0.0500000000000003	98.58173780618313	-103.0012690374435	-1.039076492892845e-12	80.38799999999991	-84.66000000000004	5.05043721578303e-13	2.071017320375504e-12	0	-114.0000000000003	-139.067795130823
10.00194001197815	41.38173762241509	-0.7	0.0500000000000003	98.58173762241589	-104.3320727640518	-1.039076492892845e-12	80.38799999999991	-84.66000000000004	5.05043721578303e-13	2.071017320375504e-12	0	-114.0000000000003	-139.067795130823
10.02699017524719	41.38173998267093	-0.7	0.0500000000000003	98.58173998267169	-105.6966061720512	-1.039076492892845e-12	80.38799999999991	-84.66000000000004	5.05043721578303e-13	2.071017320375504e-12	0	-114.0000000000003	-139.067795130823
10.04499006271362	41.38188229987138	-0.7	0.0500000000000003	98.58188229987213	-109.0674284939385	-1.039076492892845e-12	80.38799999999991	-84.66000000000004	5.05043721578303e-13	2.071017320375504e-12	0	-114.0000000000003	-139.067795130823
10.07696580886841	41.38172891311175	-0.7	0.0500000000000003	98.5817289131125	-110.2695144309865	-1.039076492892845e-12	80.38799999999991	-84.66000000000004	5.05043721578303e-13	2.071017320375504e-12	0	-114.0000000000003	-139.067795130823
10.08195090293884	40.97069790799451	-0.7	0.0500000000000003	98.17069790799528	-109.4491481673845	-1.039076492892845e-12	80.38799999999991	-84.66000000000004	5.05043721578303e-13	2.071017320375504e-12	0	-114.0000000000003	-139.067795130823
10.08596301078796	40.97145284185602	-0.7	0.0500000000000003	98.17145284185682	-111.6330422028897	-1.039076492892845e-12	80.38799999999991	-84.66000000000004	5.05043721578303e-13	2.071017320375504e-12	0	-114.0000000000003	-139.067795130823
10.09195494651794	40.57922840732446	-0.7	0.0500000000000003	97.77922840732526	-110.8504714468495	-1.039076492892845e-12	80.38799999999991	-84.66000000000004	5.05043721578303e-13	2.071017320375504e-12	0	-114.0000000000003	-139.067795130823
10.0989351272583	40.58013843350316	-0.7	0.0500000000000003	97.78013843350392	-116.4071253642501	-1.039076492892845e-12	80.38799999999991	-84.66000000000004	5.05043721578303e-13	2.071017320375504e-12	0	-114.0000000000003	-139.067795130823
10.10493493080139	40.18746942765236	-0.7	0.0500000000000003	97.38746942765314	-115.6245158820115	-1.039076492892845e-12	80.38799999999991	-84.66000000000004	5.05043721578303e-13	2.071017320375504e-12	0	-114.0000000000003	-139.067795130823
10.11196994781494	40.18812189355125	-0.7	0.0500000000000003	97.38812189355208	-117.0084379571941	-1.039076492892845e-12	80.38799999999991	-84.66000000000004	5.05043721578303e-13	2.071017320375504e-12	0	-114.0000000000003	-139.067795130823
10.11594486236572	39.73272749677314	-0.7	0.0500000000000003	96.93272749677394	-116.099413568975	-1.039076492892845e-12	80.38799999999991	-84.66000000000004	5.05043721578303e-13	2.071017320375504e-12	0	-114.0000000000003	-139.067795130823
10.1279571056366	38.79324059174309	-0.7	0.0500000000000003	95.99324059174384	-114.2219784663944	-1.039076492892845e-12	80.38799999999991	-84.66000000000004	5.05043721578303e-13	2.071017320375504e-12	0	-114.0000000000003	-139.067795130823
10.13296794891357	38.79467437695224	-0.7	0.0500000000000003	95.99467437695296	-114.7494513641755	-1.039076492892845e-12	80.38799999999991	-84.66000000000004	5.05043721578303e-13	2.071017320375504e-12	0	-114.0000000000003	-139.067795130823
10.14095592498779	38.79468998617281	-0.7	0.0500000000000003	95.99468998617353	-115.2288282333695	-1.039076492892845e-12	80.38799999999991	-84.66000000000004	5.05043721578303e-13	2.071017320375504e-12	0	-114.0000000000003	-139.067795130823
10.14697909355164	38.22409764438641	-0.7	0.0500000000000003	95.42409764438713	-114.0895554202492	-1.039076492892845e-12	80.38799999999991	-84.66000000000004	5.05043721578303e-13	2.071017320375504e-12	0	-114.0000000000003	-139.067795130823
10.15998482704163	38.22498768469373	-0.7	0.0500000000000003	95.42498768469443	-114.8909864188542	-1.039076492892845e-12	80.38799999999991	-84.66000000000004	5.05043721578303e-13	2.071017320375504e-12	0	-114.0000000000003	-139.067795130823
10.16696977615356	38.22496912926704	-0.7	0.0500000000000003	95.42496912926777	-115.1608406857825	-1.039076492892845e-12	80.38799999999991	-84.66000000000004	5.05043721578303e-13	2.071017320375504e-12	0	-114.0000000000003	-139.067795130823
10.17595601081848	29.66314836688062	-0.7	0.0500000000000003	86.86314836688132	-98.0382942609867	-1.039076492892845e-12	80.38799999999991	-84.66000000000004	5.05043721578303e-13	2.071017320375504e-12	0	-114.0000000000003	-139.067795130823
10.17995285987854	29.66305385348513	-0.7	0.0500000000000003	86.86305385348584	-97.5897549167854	-1.039076492892845e-12	80.38799999999991	-84.66000000000004	5.05043721578303e-13	2.071017320375504e-12	0	-114.0000000000003	-139.067795130823
10.1849479675293	28.97640536491043	-0.7	0.0500000000000003	86.17640536491118	-96.21848402338186	-1.039076492892845e-12	80.38799999999991	-84.66000000000004	5.05043721578303e-13	2.071017320375504e-12	0	-114.0000000000003	-139.067795130823
10.18901300430298	28.97740417704373	-0.7	0.0500000000000003	86.17740417704444	-95.93551350368999	-1.039076492892845e-12	80.38799999999991	-84.66000000000004	5.05043721578303e-13	2.071017320375504e-12	0	-114.0000000000003	-139.067795130823
10.19798994064331	28.97739179071074	-0.7	0.0500000000000003	86.17739179071141	-95.20742249402093	-1.039076492892845e-12	80.38799999999991	-84.66000000000004	5.05043721578303e-13	2.071017320375504e-12	0	-114.0000000000003	-139.067795130823
10.2069399356842	28.97730752953081	-0.7	0.0500000000000003	86.17730752953153	-93.22234422289905	-1.039076492892845e-12	80.38799999999991	-84.66000000000004	5.05043721578303e-13	2.071017320375504e-12	0	-114.0000000000003	-139.067795130823
10.21496796607971	32.24016607326507	-0.7	0.0500000000000003	89.4401660732658	-99.74706812441326	-1.039076492892845e-12	80.38799999999991	-84.66000000000004	5.05043721578303e-13	2.071017320375504e-12	0	-114.0000000000003	-139.067795130823
10.2209780216217	32.83795769879008	-0.7	0.0500000000000003	90.03795769879081	-100.9411661285723	-1.039076492892845e-12	80.38799999999991	-84.66000000000004	5.05043721578303e-13	2.071017320375504e-12	0	-114.0000000000003	-139.067795130823
